<?xml version="1.0" encoding="iso-8859-1"?>
<!-- Generator: Adobe Illustrator 19.0.0, SVG Export Plug-In . SVG Version: 6.00 Build 0)  -->
<svg version="1.1" id="Capa_1" xmlns="http://www.w3.org/2000/svg" xmlns:xlink="http://www.w3.org/1999/xlink" x="0px" y="0px"
	 viewBox="0 0 512 512" style="enable-background:new 0 0 512 512;" xml:space="preserve">
<g transform="matrix(1.25 0 0 -1.25 0 45)">
	<g>
		<g>
			<path style="fill:#FFAC33;" d="M113.778-373.6c-2.48,0-4.972,0.808-7.043,2.435c-4.278,3.379-5.564,9.296-3.072,14.143
				l79.246,154.089H45.511c-4.756,0-9.011,2.958-10.661,7.407c-1.661,4.46-0.375,9.466,3.22,12.584L288.393,33.235
				c2.128,1.832,4.779,2.765,7.43,2.765c2.48,0,4.972-0.808,7.031-2.435c4.289-3.368,5.575-9.307,3.095-14.154l-79.246-154.078
				h137.387c4.756,0,9.011-2.958,10.661-7.407c1.661-4.46,0.375-9.478-3.231-12.584l-250.3-216.178
				C119.08-372.678,116.429-373.6,113.778-373.6"/>
		</g>
	</g>
</g>
<g>
</g>
<g>
</g>
<g>
</g>
<g>
</g>
<g>
</g>
<g>
</g>
<g>
</g>
<g>
</g>
<g>
</g>
<g>
</g>
<g>
</g>
<g>
</g>
<g>
</g>
<g>
</g>
<g>
</g>
</svg>
