<?xml version="1.0" encoding="UTF-8" standalone="no"?>
<svg width="20px" height="14px" viewBox="0 0 20 14" version="1.1" xmlns="http://www.w3.org/2000/svg" xmlns:xlink="http://www.w3.org/1999/xlink">
    <!-- Generator: Sketch 47.1 (45422) - http://www.bohemiancoding.com/sketch -->
    <title>eye</title>
    <desc>Created with Sketch.</desc>
    <defs></defs>
    <g id="Web-site_Visual-design" stroke="none" stroke-width="1" fill="none" fill-rule="evenodd">
        <g id="Log-In-form" transform="translate(-867.000000, -337.000000)" fill-rule="nonzero" fill="#B0B0B0">
            <g id="Group-15" transform="translate(513.000000, 184.000000)">
                <g id="eye" transform="translate(354.000000, 153.000000)">
                    <path d="M10,0 C4.60666667,0 0,6.66666667 0,6.66666667 C0,6.66666667 4.60333333,13.3333333 10,13.3333333 C15.3933333,13.3333333 20,6.66666667 20,6.66666667 C20,6.66666667 15.3966667,0 10,0 Z M10,12.5 C5.91041667,12.5 2.1775,8.13333333 1.03916667,6.66666667 C2.17875,5.19916667 5.91291667,0.833333333 10,0.833333333 C14.0895833,0.833333333 17.8225,5.2 18.9608333,6.66666667 C17.82125,8.13416667 14.0870833,12.5 10,12.5 Z M10,3.33333333 C8.15916667,3.33333333 6.66666667,4.82583333 6.66666667,6.66666667 C6.66666667,8.5075 8.15916667,10 10,10 C11.8408333,10 13.3333333,8.5075 13.3333333,6.66666667 C13.3333333,4.82583333 11.8408333,3.33333333 10,3.33333333 Z M10,9.16666667 C8.62166667,9.16666667 7.5,8.045 7.5,6.66666667 C7.5,5.28833333 8.62166667,4.16666667 10,4.16666667 C11.3783333,4.16666667 12.5,5.28833333 12.5,6.66666667 C12.5,8.045 11.3783333,9.16666667 10,9.16666667 Z" id="Shape"></path>
                </g>
            </g>
        </g>
    </g>
</svg>